<svg id="visual" viewBox="0 0 2400 150" width="2400" height="150" xmlns="http://www.w3.org/2000/svg" xmlns:xlink="http://www.w3.org/1999/xlink" version="1.1"><path d="M0 26L120 26L120 32L240 32L240 19L360 19L360 38L480 38L480 19L600 19L600 41L720 41L720 19L840 19L840 30L960 30L960 24L1080 24L1080 36L1200 36L1200 26L1320 26L1320 14L1440 14L1440 21L1560 21L1560 23L1680 23L1680 22L1800 22L1800 25L1920 25L1920 28L2040 28L2040 10L2160 10L2160 40L2280 40L2280 31L2400 31L2400 14L2400 151L2400 151L2280 151L2280 151L2160 151L2160 151L2040 151L2040 151L1920 151L1920 151L1800 151L1800 151L1680 151L1680 151L1560 151L1560 151L1440 151L1440 151L1320 151L1320 151L1200 151L1200 151L1080 151L1080 151L960 151L960 151L840 151L840 151L720 151L720 151L600 151L600 151L480 151L480 151L360 151L360 151L240 151L240 151L120 151L120 151L0 151Z" fill="#232323"></path><path d="M0 38L120 38L120 31L240 31L240 55L360 55L360 51L480 51L480 41L600 41L600 40L720 40L720 52L840 52L840 56L960 56L960 52L1080 52L1080 37L1200 37L1200 38L1320 38L1320 39L1440 39L1440 46L1560 46L1560 37L1680 37L1680 42L1800 42L1800 53L1920 53L1920 57L2040 57L2040 52L2160 52L2160 47L2280 47L2280 36L2400 36L2400 43L2400 151L2400 151L2280 151L2280 151L2160 151L2160 151L2040 151L2040 151L1920 151L1920 151L1800 151L1800 151L1680 151L1680 151L1560 151L1560 151L1440 151L1440 151L1320 151L1320 151L1200 151L1200 151L1080 151L1080 151L960 151L960 151L840 151L840 151L720 151L720 151L600 151L600 151L480 151L480 151L360 151L360 151L240 151L240 151L120 151L120 151L0 151Z" fill="#4b4028"></path><path d="M0 52L120 52L120 70L240 70L240 72L360 72L360 67L480 67L480 57L600 57L600 73L720 73L720 57L840 57L840 52L960 52L960 74L1080 74L1080 61L1200 61L1200 67L1320 67L1320 60L1440 60L1440 62L1560 62L1560 56L1680 56L1680 77L1800 77L1800 62L1920 62L1920 81L2040 81L2040 55L2160 55L2160 59L2280 59L2280 81L2400 81L2400 58L2400 151L2400 151L2280 151L2280 151L2160 151L2160 151L2040 151L2040 151L1920 151L1920 151L1800 151L1800 151L1680 151L1680 151L1560 151L1560 151L1440 151L1440 151L1320 151L1320 151L1200 151L1200 151L1080 151L1080 151L960 151L960 151L840 151L840 151L720 151L720 151L600 151L600 151L480 151L480 151L360 151L360 151L240 151L240 151L120 151L120 151L0 151Z" fill="#74602b"></path><path d="M0 100L120 100L120 74L240 74L240 94L360 94L360 88L480 88L480 86L600 86L600 99L720 99L720 99L840 99L840 91L960 91L960 76L1080 76L1080 95L1200 95L1200 75L1320 75L1320 88L1440 88L1440 87L1560 87L1560 84L1680 84L1680 81L1800 81L1800 82L1920 82L1920 88L2040 88L2040 88L2160 88L2160 89L2280 89L2280 80L2400 80L2400 91L2400 151L2400 151L2280 151L2280 151L2160 151L2160 151L2040 151L2040 151L1920 151L1920 151L1800 151L1800 151L1680 151L1680 151L1560 151L1560 151L1440 151L1440 151L1320 151L1320 151L1200 151L1200 151L1080 151L1080 151L960 151L960 151L840 151L840 151L720 151L720 151L600 151L600 151L480 151L480 151L360 151L360 151L240 151L240 151L120 151L120 151L0 151Z" fill="#9f822a"></path><path d="M0 113L120 113L120 106L240 106L240 118L360 118L360 95L480 95L480 118L600 118L600 94L720 94L720 112L840 112L840 100L960 100L960 95L1080 95L1080 118L1200 118L1200 111L1320 111L1320 107L1440 107L1440 120L1560 120L1560 118L1680 118L1680 115L1800 115L1800 113L1920 113L1920 106L2040 106L2040 119L2160 119L2160 109L2280 109L2280 94L2400 94L2400 104L2400 151L2400 151L2280 151L2280 151L2160 151L2160 151L2040 151L2040 151L1920 151L1920 151L1800 151L1800 151L1680 151L1680 151L1560 151L1560 151L1440 151L1440 151L1320 151L1320 151L1200 151L1200 151L1080 151L1080 151L960 151L960 151L840 151L840 151L720 151L720 151L600 151L600 151L480 151L480 151L360 151L360 151L240 151L240 151L120 151L120 151L0 151Z" fill="#cca625"></path><path d="M0 124L120 124L120 134L240 134L240 125L360 125L360 117L480 117L480 134L600 134L600 140L720 140L720 121L840 121L840 137L960 137L960 121L1080 121L1080 134L1200 134L1200 124L1320 124L1320 134L1440 134L1440 125L1560 125L1560 121L1680 121L1680 128L1800 128L1800 122L1920 122L1920 132L2040 132L2040 136L2160 136L2160 120L2280 120L2280 138L2400 138L2400 137L2400 151L2400 151L2280 151L2280 151L2160 151L2160 151L2040 151L2040 151L1920 151L1920 151L1800 151L1800 151L1680 151L1680 151L1560 151L1560 151L1440 151L1440 151L1320 151L1320 151L1200 151L1200 151L1080 151L1080 151L960 151L960 151L840 151L840 151L720 151L720 151L600 151L600 151L480 151L480 151L360 151L360 151L240 151L240 151L120 151L120 151L0 151Z" fill="#facc15"></path></svg>