<svg id="visual" viewBox="0 0 2400 150" width="2400" height="150" xmlns="http://www.w3.org/2000/svg" xmlns:xlink="http://www.w3.org/1999/xlink" version="1.1"><path d="M0 126L50 126.8C100 127.7 200 129.3 300 130C400 130.7 500 130.3 600 127.7C700 125 800 120 900 116.2C1000 112.3 1100 109.7 1200 109.2C1300 108.7 1400 110.3 1500 113.8C1600 117.3 1700 122.7 1800 124.3C1900 126 2000 124 2100 124C2200 124 2300 126 2350 127L2400 128L2400 0L2350 0C2300 0 2200 0 2100 0C2000 0 1900 0 1800 0C1700 0 1600 0 1500 0C1400 0 1300 0 1200 0C1100 0 1000 0 900 0C800 0 700 0 600 0C500 0 400 0 300 0C200 0 100 0 50 0L0 0Z" fill="#facc15"></path><path d="M0 93L50 96C100 99 200 105 300 104.3C400 103.7 500 96.3 600 95.2C700 94 800 99 900 98C1000 97 1100 90 1200 89.8C1300 89.7 1400 96.3 1500 97.8C1600 99.3 1700 95.7 1800 95.5C1900 95.3 2000 98.7 2100 101C2200 103.3 2300 104.7 2350 105.3L2400 106L2400 0L2350 0C2300 0 2200 0 2100 0C2000 0 1900 0 1800 0C1700 0 1600 0 1500 0C1400 0 1300 0 1200 0C1100 0 1000 0 900 0C800 0 700 0 600 0C500 0 400 0 300 0C200 0 100 0 50 0L0 0Z" fill="#cca625"></path><path d="M0 86L50 84.7C100 83.3 200 80.7 300 80.2C400 79.7 500 81.3 600 81.2C700 81 800 79 900 76.2C1000 73.3 1100 69.7 1200 71.2C1300 72.7 1400 79.3 1500 83C1600 86.7 1700 87.3 1800 86C1900 84.7 2000 81.3 2100 80.7C2200 80 2300 82 2350 83L2400 84L2400 0L2350 0C2300 0 2200 0 2100 0C2000 0 1900 0 1800 0C1700 0 1600 0 1500 0C1400 0 1300 0 1200 0C1100 0 1000 0 900 0C800 0 700 0 600 0C500 0 400 0 300 0C200 0 100 0 50 0L0 0Z" fill="#9f822a"></path><path d="M0 51L50 51.8C100 52.7 200 54.3 300 53.7C400 53 500 50 600 49.3C700 48.7 800 50.3 900 50.5C1000 50.7 1100 49.3 1200 50.2C1300 51 1400 54 1500 54.5C1600 55 1700 53 1800 51.3C1900 49.7 2000 48.3 2100 48.8C2200 49.3 2300 51.7 2350 52.8L2400 54L2400 0L2350 0C2300 0 2200 0 2100 0C2000 0 1900 0 1800 0C1700 0 1600 0 1500 0C1400 0 1300 0 1200 0C1100 0 1000 0 900 0C800 0 700 0 600 0C500 0 400 0 300 0C200 0 100 0 50 0L0 0Z" fill="#74602b"></path><path d="M0 32L50 35.2C100 38.3 200 44.7 300 44.3C400 44 500 37 600 33.3C700 29.7 800 29.3 900 31.2C1000 33 1100 37 1200 39.8C1300 42.7 1400 44.3 1500 44C1600 43.7 1700 41.3 1800 39C1900 36.7 2000 34.3 2100 36.2C2200 38 2300 44 2350 47L2400 50L2400 0L2350 0C2300 0 2200 0 2100 0C2000 0 1900 0 1800 0C1700 0 1600 0 1500 0C1400 0 1300 0 1200 0C1100 0 1000 0 900 0C800 0 700 0 600 0C500 0 400 0 300 0C200 0 100 0 50 0L0 0Z" fill="#4b4028"></path><path d="M0 13L50 14.8C100 16.7 200 20.3 300 21.7C400 23 500 22 600 22.8C700 23.7 800 26.3 900 24.8C1000 23.3 1100 17.7 1200 14.7C1300 11.7 1400 11.3 1500 13.5C1600 15.7 1700 20.3 1800 23.3C1900 26.3 2000 27.7 2100 27C2200 26.3 2300 23.7 2350 22.3L2400 21L2400 0L2350 0C2300 0 2200 0 2100 0C2000 0 1900 0 1800 0C1700 0 1600 0 1500 0C1400 0 1300 0 1200 0C1100 0 1000 0 900 0C800 0 700 0 600 0C500 0 400 0 300 0C200 0 100 0 50 0L0 0Z" fill="#232323"></path></svg>