<svg id="visual" viewBox="0 0 900 450" width="900" height="450" xmlns="http://www.w3.org/2000/svg" xmlns:xlink="http://www.w3.org/1999/xlink" version="1.1"><path d="M0 260L25 266.7C50 273.3 100 286.7 150 295.5C200 304.3 250 308.7 300 299.5C350 290.3 400 267.7 450 260.3C500 253 550 261 600 265C650 269 700 269 750 275.8C800 282.7 850 296.3 875 303.2L900 310L900 0L875 0C850 0 800 0 750 0C700 0 650 0 600 0C550 0 500 0 450 0C400 0 350 0 300 0C250 0 200 0 150 0C100 0 50 0 25 0L0 0Z" fill="#facc15"></path><path d="M0 245L25 240.3C50 235.7 100 226.3 150 223.7C200 221 250 225 300 233.7C350 242.3 400 255.7 450 262.3C500 269 550 269 600 259.7C650 250.3 700 231.7 750 223.5C800 215.3 850 217.7 875 218.8L900 220L900 0L875 0C850 0 800 0 750 0C700 0 650 0 600 0C550 0 500 0 450 0C400 0 350 0 300 0C250 0 200 0 150 0C100 0 50 0 25 0L0 0Z" fill="#bc9a21"></path><path d="M0 145L25 146.2C50 147.3 100 149.7 150 150C200 150.3 250 148.7 300 147.5C350 146.3 400 145.7 450 148.7C500 151.7 550 158.3 600 166.2C650 174 700 183 750 185.5C800 188 850 184 875 182L900 180L900 0L875 0C850 0 800 0 750 0C700 0 650 0 600 0C550 0 500 0 450 0C400 0 350 0 300 0C250 0 200 0 150 0C100 0 50 0 25 0L0 0Z" fill="#816a23"></path><path d="M0 132L25 135C50 138 100 144 150 140.3C200 136.7 250 123.3 300 122.3C350 121.3 400 132.7 450 139C500 145.3 550 146.7 600 142.8C650 139 700 130 750 124.3C800 118.7 850 116.3 875 115.2L900 114L900 0L875 0C850 0 800 0 750 0C700 0 650 0 600 0C550 0 500 0 450 0C400 0 350 0 300 0C250 0 200 0 150 0C100 0 50 0 25 0L0 0Z" fill="#4a3e1f"></path><path d="M0 95L25 91C50 87 100 79 150 74.7C200 70.3 250 69.7 300 72.5C350 75.3 400 81.7 450 82.8C500 84 550 80 600 78.5C650 77 700 78 750 75.2C800 72.3 850 65.7 875 62.3L900 59L900 0L875 0C850 0 800 0 750 0C700 0 650 0 600 0C550 0 500 0 450 0C400 0 350 0 300 0C250 0 200 0 150 0C100 0 50 0 25 0L0 0Z" fill="#171717"></path></svg>